<?xml version="1.0" standalone="no"?>
<!DOCTYPE svg PUBLIC "-//W3C//DTD SVG 20010904//EN"
 "http://www.w3.org/TR/2001/REC-SVG-20010904/DTD/svg10.dtd">
<svg version="1.0" xmlns="http://www.w3.org/2000/svg"
 width="512.000000pt" height="512.000000pt" viewBox="0 0 512.000000 512.000000"
 preserveAspectRatio="xMidYMid meet">
<metadata>
Created by potrace 1.14, written by Peter Selinger 2001-2017
</metadata>
<g transform="translate(0.000000,512.000000) scale(0.100000,-0.100000)"
fill="#000000" stroke="none">
<path d="M1657 4804 c-1 -1 -33 -5 -71 -8 -37 -3 -71 -8 -75 -11 -4 -2 -18 -6
-32 -9 -107 -20 -264 -105 -362 -195 -55 -51 -112 -140 -139 -218 -23 -67 -23
-75 -24 -470 l0 -403 -31 -32 c-122 -131 -82 -343 80 -422 28 -14 67 -27 86
-29 35 -2 35 -3 47 -72 7 -39 19 -90 28 -113 19 -52 78 -164 106 -200 35 -46
131 -140 166 -164 26 -18 34 -30 34 -54 l0 -31 -112 -26 c-62 -15 -189 -45
-283 -67 -93 -23 -177 -43 -185 -45 -89 -20 -128 -33 -205 -71 -205 -99 -354
-281 -413 -499 -24 -93 -25 -105 -26 -774 l-1 -574 1618 0 c890 0 1620 2 1622
4 2 3 5 283 6 624 1 430 -2 634 -9 665 -6 25 -12 48 -12 53 0 4 72 7 160 7
l160 0 2 -676 3 -677 93 1 c51 0 96 3 100 7 4 4 8 282 9 618 0 337 1 638 2
670 l1 57 388 0 c356 0 390 1 422 18 70 37 68 15 68 682 0 563 -1 600 -19 629
-42 69 27 64 -967 64 -854 1 -898 0 -925 -18 -58 -38 -59 -43 -59 -450 0 -340
-2 -372 -17 -369 -9 2 -126 31 -261 63 -135 33 -262 62 -282 66 -36 7 -38 9
-38 45 0 30 6 41 27 56 85 55 181 169 238 282 33 65 75 202 75 246 0 17 7 21
35 24 116 8 223 113 239 236 9 68 -16 150 -65 208 l-39 47 0 398 c1 219 -2
418 -5 443 -7 48 -62 172 -92 205 -85 95 -227 131 -378 96 l-70 -17 -94 48
c-92 47 -241 100 -311 112 -74 12 -207 25 -213 20z"/>
</g>
</svg>
